# xmcd
#
# Track frame offsets: 
#        150
#        28867
#        51870
#        73965
#        85665
#        94882
#        125170
#        146502
#        156085
#        178342
#        187875
#        222235
#
# Disc length: 3169 seconds
#
# Revision: 2
# Processed by: cddbd v1.5.2PL0 Copyright (c) Steve Scherf et al.
# Submitted via: ExactAudioCopyFreeDBPlugin 1.0
#
DISCID=b30c5f0c
DTITLE=村松健 - 一番美しいもの
DYEAR=2000
DGENRE=New Age
TTITLE0=永遠みたいな陽だまりで
TTITLE1=逢えてよかった
TTITLE2=テネシーワルツ
TTITLE3=旅立つ理由
TTITLE4=シチリアーナ
TTITLE5=マイ・ファニー・ヴァレンタイン
TTITLE6=アメイジング・グレース
TTITLE7=あの日の僕をさがして
TTITLE8=愛はどこへ
TTITLE9=ねこの気持ち 〜行かないでよ〜
TTITLE10=もう一度、出会うために
TTITLE11=星のまたたくように
EXTD=
EXTT0=
EXTT1=
EXTT2=
EXTT3=
EXTT4=
EXTT5=
EXTT6=
EXTT7=
EXTT8=
EXTT9=
EXTT10=
EXTT11=
PLAYORDER=
